<mxfile host="app.diagrams.net" agent="Mozilla/5.0 (Windows NT 10.0; Win64; x64) AppleWebKit/537.36 (KHTML, like Gecko) Chrome/131.0.0.0 Safari/537.36" version="24.7.7">
  <diagram name="第 1 页" id="4tdd5TN2pwOT4JvmbOgw">
    <mxGraphModel dx="3074" dy="758" grid="1" gridSize="10" guides="1" tooltips="1" connect="1" arrows="1" fold="1" page="1" pageScale="1" pageWidth="827" pageHeight="1169" math="0" shadow="0">
      <root>
        <mxCell id="0" />
        <mxCell id="1" parent="0" />
        <mxCell id="7m3Vu78-JB6gVAxVATcC-15" style="edgeStyle=orthogonalEdgeStyle;rounded=0;orthogonalLoop=1;jettySize=auto;html=1;exitX=1;exitY=0.5;exitDx=0;exitDy=0;entryX=0;entryY=0.5;entryDx=0;entryDy=0;" edge="1" parent="1" source="7m3Vu78-JB6gVAxVATcC-4" target="7m3Vu78-JB6gVAxVATcC-8">
          <mxGeometry relative="1" as="geometry" />
        </mxCell>
        <mxCell id="7m3Vu78-JB6gVAxVATcC-4" value="基础信息" style="rounded=1;whiteSpace=wrap;html=1;absoluteArcSize=1;arcSize=14;strokeWidth=2;" vertex="1" parent="1">
          <mxGeometry x="-1360" y="460" width="120" height="40" as="geometry" />
        </mxCell>
        <mxCell id="7m3Vu78-JB6gVAxVATcC-7" value="其他设置" style="rounded=1;whiteSpace=wrap;html=1;absoluteArcSize=1;arcSize=14;strokeWidth=2;" vertex="1" parent="1">
          <mxGeometry x="-760" y="460" width="120" height="40" as="geometry" />
        </mxCell>
        <mxCell id="7m3Vu78-JB6gVAxVATcC-16" style="edgeStyle=orthogonalEdgeStyle;rounded=0;orthogonalLoop=1;jettySize=auto;html=1;exitX=1;exitY=0.5;exitDx=0;exitDy=0;entryX=0;entryY=0.5;entryDx=0;entryDy=0;" edge="1" parent="1" source="7m3Vu78-JB6gVAxVATcC-8" target="7m3Vu78-JB6gVAxVATcC-9">
          <mxGeometry relative="1" as="geometry" />
        </mxCell>
        <mxCell id="7m3Vu78-JB6gVAxVATcC-35" style="edgeStyle=orthogonalEdgeStyle;rounded=0;orthogonalLoop=1;jettySize=auto;html=1;exitX=0.5;exitY=1;exitDx=0;exitDy=0;entryX=0.5;entryY=0;entryDx=0;entryDy=0;" edge="1" parent="1" source="7m3Vu78-JB6gVAxVATcC-8" target="7m3Vu78-JB6gVAxVATcC-22">
          <mxGeometry relative="1" as="geometry" />
        </mxCell>
        <mxCell id="7m3Vu78-JB6gVAxVATcC-8" value="选择数据源" style="rounded=1;whiteSpace=wrap;html=1;absoluteArcSize=1;arcSize=14;strokeWidth=2;" vertex="1" parent="1">
          <mxGeometry x="-1160" y="460" width="120" height="40" as="geometry" />
        </mxCell>
        <mxCell id="7m3Vu78-JB6gVAxVATcC-18" style="edgeStyle=orthogonalEdgeStyle;rounded=0;orthogonalLoop=1;jettySize=auto;html=1;exitX=1;exitY=0.5;exitDx=0;exitDy=0;entryX=0;entryY=0.5;entryDx=0;entryDy=0;" edge="1" parent="1" source="7m3Vu78-JB6gVAxVATcC-9" target="7m3Vu78-JB6gVAxVATcC-7">
          <mxGeometry relative="1" as="geometry" />
        </mxCell>
        <mxCell id="7m3Vu78-JB6gVAxVATcC-9" value="字段设置" style="rounded=1;whiteSpace=wrap;html=1;absoluteArcSize=1;arcSize=14;strokeWidth=2;" vertex="1" parent="1">
          <mxGeometry x="-960" y="460" width="120" height="40" as="geometry" />
        </mxCell>
        <mxCell id="7m3Vu78-JB6gVAxVATcC-11" value="结束" style="strokeWidth=2;html=1;shape=mxgraph.flowchart.start_1;whiteSpace=wrap;" vertex="1" parent="1">
          <mxGeometry x="-560" y="450" width="100" height="60" as="geometry" />
        </mxCell>
        <mxCell id="7m3Vu78-JB6gVAxVATcC-25" style="edgeStyle=orthogonalEdgeStyle;rounded=0;orthogonalLoop=1;jettySize=auto;html=1;exitX=1;exitY=0.5;exitDx=0;exitDy=0;entryX=0.5;entryY=1;entryDx=0;entryDy=0;" edge="1" parent="1" source="7m3Vu78-JB6gVAxVATcC-22" target="7m3Vu78-JB6gVAxVATcC-7">
          <mxGeometry relative="1" as="geometry" />
        </mxCell>
        <mxCell id="7m3Vu78-JB6gVAxVATcC-38" value="&lt;b&gt;应用到其他设置中的通用查询配置&lt;/b&gt;" style="edgeLabel;html=1;align=center;verticalAlign=middle;resizable=0;points=[];strokeColor=#FF0000;fillColor=#FF3333;" vertex="1" connectable="0" parent="7m3Vu78-JB6gVAxVATcC-25">
          <mxGeometry x="0.372" y="3" relative="1" as="geometry">
            <mxPoint as="offset" />
          </mxGeometry>
        </mxCell>
        <mxCell id="7m3Vu78-JB6gVAxVATcC-22" value="通用查询速配" style="rounded=1;whiteSpace=wrap;html=1;absoluteArcSize=1;arcSize=14;strokeWidth=2;" vertex="1" parent="1">
          <mxGeometry x="-1360" y="670" width="520" height="40" as="geometry" />
        </mxCell>
        <mxCell id="7m3Vu78-JB6gVAxVATcC-30" style="edgeStyle=orthogonalEdgeStyle;rounded=0;orthogonalLoop=1;jettySize=auto;html=1;exitX=1;exitY=0.5;exitDx=0;exitDy=0;exitPerimeter=0;entryX=0;entryY=0.5;entryDx=0;entryDy=0;" edge="1" parent="1" source="7m3Vu78-JB6gVAxVATcC-28" target="7m3Vu78-JB6gVAxVATcC-4">
          <mxGeometry relative="1" as="geometry" />
        </mxCell>
        <mxCell id="7m3Vu78-JB6gVAxVATcC-28" value="开始" style="strokeWidth=2;html=1;shape=mxgraph.flowchart.start_1;whiteSpace=wrap;" vertex="1" parent="1">
          <mxGeometry x="-1540" y="450" width="100" height="60" as="geometry" />
        </mxCell>
        <mxCell id="7m3Vu78-JB6gVAxVATcC-31" style="edgeStyle=orthogonalEdgeStyle;rounded=0;orthogonalLoop=1;jettySize=auto;html=1;exitX=0.5;exitY=1;exitDx=0;exitDy=0;entryX=0.113;entryY=0.075;entryDx=0;entryDy=0;entryPerimeter=0;" edge="1" parent="1" source="7m3Vu78-JB6gVAxVATcC-4" target="7m3Vu78-JB6gVAxVATcC-22">
          <mxGeometry relative="1" as="geometry" />
        </mxCell>
        <mxCell id="7m3Vu78-JB6gVAxVATcC-36" style="edgeStyle=orthogonalEdgeStyle;rounded=0;orthogonalLoop=1;jettySize=auto;html=1;exitX=1;exitY=0.5;exitDx=0;exitDy=0;entryX=0;entryY=0.5;entryDx=0;entryDy=0;entryPerimeter=0;" edge="1" parent="1" source="7m3Vu78-JB6gVAxVATcC-7" target="7m3Vu78-JB6gVAxVATcC-11">
          <mxGeometry relative="1" as="geometry" />
        </mxCell>
        <mxCell id="7m3Vu78-JB6gVAxVATcC-37" style="edgeStyle=orthogonalEdgeStyle;rounded=0;orthogonalLoop=1;jettySize=auto;html=1;exitX=0.5;exitY=1;exitDx=0;exitDy=0;entryX=0.884;entryY=0.042;entryDx=0;entryDy=0;entryPerimeter=0;" edge="1" parent="1" source="7m3Vu78-JB6gVAxVATcC-9" target="7m3Vu78-JB6gVAxVATcC-22">
          <mxGeometry relative="1" as="geometry" />
        </mxCell>
      </root>
    </mxGraphModel>
  </diagram>
</mxfile>
